<svg xmlns="http://www.w3.org/2000/svg" viewBox="0 0 87.31 87.31"><defs><style>.cls-1{fill:#ffed00;}.cls-2{fill:#fff;}</style></defs><g id="Layer_2" data-name="Layer 2"><g id="Layer_1-2" data-name="Layer 1"><circle cx="43.66" cy="43.66" r="41.66"/><path class="cls-1" d="M43.66,4A39.66,39.66,0,1,1,4,43.66,39.7,39.7,0,0,1,43.66,4m0-4A43.66,43.66,0,1,0,87.31,43.66,43.66,43.66,0,0,0,43.66,0Z"/><path class="cls-2" d="M52.91,42.52,44.5,28.82H52l4.83,8.62,5.84-8.62h7.48l-9.41,13.7,9.41,14.71H62.65l-5.84-9.58L47,61.23H39.5Z"/><path class="cls-2" d="M42.91,28.89H36.1v19.7c0,3.36-2,5.25-5.08,5.25S25.94,52,25.94,48.59V28.89H19.18V49c0,6.85,4.62,10.71,11.84,10.71a16.33,16.33,0,0,0,4.28-.54l7.61-10.61Z"/></g></g></svg>